<svg width="340" height="166" viewBox="0 0 340 166" xmlns="http://www.w3.org/2000/svg">
  <g fill="none" fill-rule="evenodd">
    <path d="M169.7 117c13 0 21.3 9.2 22.5 18h-13a9.5 9.5 0 00-9.5-7.8c-7.6 0-11.6 6.5-11.6 14.3 0 7.5 4.5 14.3 11.6 14.3 6.2 0 9.1-4.6 10-8.4H193a23.1 23.1 0 01-23.5 18.6c-14.3 0-23.7-10.7-23.7-24.6 0-14 10-24.4 24-24.4zm-141 1.8l16.2 46H33l-3-9.3h-15l-3 9.3H0l17.4-46h11.4zm49.4-.3v10.3H61.3v8.5h16v9.7h-16v17.5H49v-46h29zm21.7 0c13.8 0 18.6 6.1 18.6 14.4 0 6.6-3.8 10.7-8.6 12.4l14 19.2h-14l-11.7-17.4H97v17.4H85v-46h15zm40 0v46h-12v-46h12zm82.8 0l16.1 46h-12.1l-3-9.2h-15l-2.9 9.2h-12l17.5-46h11.4zm-200 13.6h-.4c-.5 2-.8 3.4-1.6 5.6l-3.1 9.8h9.8l-3.2-9.8c-.9-2.7-1-3.7-1.5-5.6zm193.8-.3h-.4l-1.6 5.7-3.2 9.8h9.9l-3.2-9.9c-.9-2.6-1-3.6-1.5-5.6zM100.2 128H97v11h3.4c3.3 0 5.7-1.9 5.7-5.4 0-3.4-2-5.6-5.8-5.6zm83.3-69A23.8 23.8 0 01208 83.5a24.4 24.4 0 01-24.5 24.7c-17 0-24.6-13.3-24.6-24.7A24.5 24.5 0 01183.5 59zm-84 0a22 22 0 0122.6 18h-13a9.6 9.6 0 00-9.6-7.8c-7.6 0-11.7 6.5-11.7 14.3C87.8 91 92.4 98 99.5 98c6.3 0 9.2-4.6 10-8.5H123a23.3 23.3 0 01-23.7 18.8c-14.4 0-23.8-10.8-23.8-24.8s10-24.5 24-24.5zm129.8 1.5c13.9 0 18.7 6 18.7 14.4 0 6.7-3.8 10.8-8.6 12.5l14 19.4h-14L227.6 89h-1.2v17.6h-12.1V60.4h15zm33.7 0l6.2 11.8c1 2 1.8 4.2 2.4 6h.1c.6-1.8 1.4-3.8 2.4-5.9l5.7-12h12.8l-15.2 28v18.4h-12.1V88.5L250 60.4h13zm-205 0l16.3 46.3H62.1l-3-9.3h-15l-3 9.3h-12l17.5-46.3H58zm99.2 0v10.3h-10.4v36h-12.2v-36h-10.4V60.4h33zm-128-.4v10.4h-17V79h16.2v9.7H12.2v17.6H0V60h29.1zm154.3 9.8c-7 0-12.3 5.9-12.3 13.7 0 7.7 5.2 13.7 12.1 13.7 7 0 12.2-6 12.2-13.7 0-7.6-4.6-13.7-12-13.7zm-131.7 4h-.4l-1.6 5.6-3.2 9.9h10l-3.3-10c-.8-2.6-1-3.6-1.5-5.6zm178-4h-3.4v11h3.4c3.3 0 5.8-1.8 5.8-5.4 0-3.4-2.1-5.6-5.9-5.6zM58.3 0a23.8 23.8 0 0124.3 24.7 24.4 24.4 0 01-24.5 24.6c-17 0-24.5-13.2-24.5-24.6A24.5 24.5 0 0158.4 0zm42.2 1.5v28.7c0 6 2.1 8.9 5.9 8.9 4.9 0 6-4 6-8.9V1.5h12v28c0 14-7 19.8-18 19.8-10.5 0-18-5.2-18-19.8v-28h12zM321.8 0c9.5 0 15.5 5.7 15.5 15.1h-11c0-3.3-1.7-5.4-4.6-5.4-2 0-3.8 1.3-3.8 3.7 0 2.9 3 4.2 7.5 5.8 9 3 12.6 8.6 12.6 15.4 0 6.7-4.7 14.7-16.4 14.7-10.1 0-16.6-6.2-16.6-16.4h11.6c0 4 1.5 6.7 5.2 6.7 2.6 0 4.5-1.7 4.5-4.3 0-3-2.2-4.6-7.4-6.4-9.7-3.4-12.7-9.3-12.7-15.3C306.2 5 313.4 0 321.8 0zM195.3 1.5C212 1.5 221 12 221 24.7c0 12.5-9.4 23.1-25.7 23.1H179V1.5h16.3zm61 0V12h-16.9v7.2h16.3v9.7h-16.3v8.6H257v10.4h-29.7V1.5h29zm23.8 0c13.8 0 18.6 6.1 18.6 14.5 0 6.6-3.8 10.8-8.6 12.5l14.1 19.3h-14l-11.8-17.5h-1.2v17.5H265V1.5h15zm-251 0V12H12.2v8.6h16.2v9.7H12.2v17.6H0V1.5h29.1zm141.1 0v46.3H160L150.2 32c-4.8-7.7-6.1-10.6-7.5-12.8h-.2l.2 8.4v20.1h-10.1V1.5h10.2L154.3 20c3.6 5.7 4.5 8.1 5.7 10.4h.2l-.2-7.5V1.5h10.2zM58.3 11c-7 0-12.3 5.9-12.3 13.7 0 7.7 5.2 13.7 12.2 13.7 7 0 12.2-6 12.2-13.7 0-7.6-4.7-13.7-12-13.7zM194.7 12H191v25.1h3.6c9.7 0 13.9-5.7 13.9-12.5 0-7.4-4.5-12.6-14-12.6zm85.8-1.1h-3.3v11h3.4c3.3 0 5.7-1.9 5.7-5.4 0-3.5-2-5.6-5.8-5.6z" fill="#000"/>
    <path d="M303 106.7a10.4 10.4 0 110-20.8 10.4 10.4 0 010 20.8z"/>
    <path d="M303 106.7a10.4 10.4 0 110-20.8 10.4 10.4 0 010 20.8" fill="#F5DB40"/>
  </g>
</svg>
