<svg id="圖層_1" data-name="圖層 1" xmlns="http://www.w3.org/2000/svg" viewBox="0 0 388.47 366"><defs><style>.cls-1{opacity:0.5;}.cls-2{fill:#fff;}</style></defs><title>logo white</title><g class="cls-1"><path class="cls-2" d="M195.48,192.83a81.53,81.53,0,0,1,0-105.81,2.92,2.92,0,0,0-2.16-4.85l-67-.8a58.73,58.73,0,0,0-58.56,58.56h0a58.73,58.73,0,0,0,58.56,58.56l67-.8A2.92,2.92,0,0,0,195.48,192.83Z"/><path class="cls-2" d="M126.36,199.81a59.88,59.88,0,1,1,0-119.76l67,.8a4.19,4.19,0,0,1,3.8,2.48,4.25,4.25,0,0,1-.66,4.56,79.76,79.76,0,0,0,0,104.1,4.25,4.25,0,0,1,.66,4.56,4.19,4.19,0,0,1-3.8,2.48Zm0-117.11a57.23,57.23,0,0,0,0,114.46l67-.8a1.54,1.54,0,0,0,1.42-.92,1.6,1.6,0,0,0-.26-1.74h0a82.39,82.39,0,0,1,0-107.54,1.6,1.6,0,0,0,.26-1.74,1.54,1.54,0,0,0-1.42-.92Z"/></g><path class="cls-2" d="M316.88,139.93a55.76,55.76,0,0,1-1.64,13.46,6.62,6.62,0,1,0,12.85,3.2,69.23,69.23,0,0,0-67.21-85.91H126.2a69.25,69.25,0,1,0,0,138.5h96.13a6.62,6.62,0,0,0,0-13.24h-11a6.63,6.63,0,0,0-.71-.85,78.09,78.09,0,0,1,0-110.31,6.63,6.63,0,0,0,.71-.85h49.54A56.07,56.07,0,0,1,316.88,139.93Zm-142.36,0a90.51,90.51,0,0,0,19.25,56H126.2a56,56,0,1,1,0-112h67.56A90.51,90.51,0,0,0,174.51,139.93Z"/><path class="cls-2" d="M324.31,188.86l-20.82-16.57a6.62,6.62,0,1,0-8.24,10.36l16.88,13.43H301.69a6.49,6.49,0,0,0-6.47,6.47h0a6.49,6.49,0,0,0,6.47,6.47h11.52l-17.79,14.15a6.62,6.62,0,1,0,8.24,10.36l20.64-16.43a17.55,17.55,0,0,0,0-28.25Z"/><rect class="cls-2" x="267.44" y="196.08" width="19.43" height="12.95" rx="5.79" ry="5.79"/><rect class="cls-2" x="237.65" y="196.08" width="19.43" height="12.95" rx="5.79" ry="5.79"/><path class="cls-2" d="M94.37,236.53a4.08,4.08,0,0,0-4-4.3,5.07,5.07,0,0,0-3.24,1.5l-17.4,14.77V236.34c0-2.69-1.48-4.17-4.17-4.17s-4.17,1.48-4.17,4.17v42.48c0,2.69,1.48,4.17,4.17,4.17s4.17-1.48,4.17-4.17V266.6l16.63,14.3.5.39.24-.29h0l-.16.35A5.53,5.53,0,0,0,90.33,283a4.08,4.08,0,0,0,4-4.3,4.57,4.57,0,0,0-1.92-3.48L72,257.58,92.6,239.93A4.61,4.61,0,0,0,94.37,236.53Z"/><path class="cls-2" d="M203.85,263.53l-15.06-6.84c-1-.43-1-.57-1-.8a.64.64,0,0,1,.11-.41c.28-.27,1.24-.26,1.84-.25h9.55c1.57,0,2.25.13,2.93.86a4.29,4.29,0,0,0,3.33,1.58,4.08,4.08,0,0,0,4.11-4,5.73,5.73,0,0,0-1.9-4.77c-2.19-1.83-4.42-1.79-7-1.74h-.13l-1.34,0H189c-5.39,0-9.31,3.65-9.31,8.68s3,7,5.87,8.27l14.16,6.46c1.67.75,2.52,1.45,2.52,2.06a2.27,2.27,0,0,1-.5,1.67c-.62.61-1.91.61-3.06.62h-8.56c-1.54,0-3.25-.08-4.06-1a3.91,3.91,0,0,0-3.08-1.4,4.11,4.11,0,0,0-4.17,4,7.42,7.42,0,0,0,2.06,4.7c1.51,1.56,3.81,1.78,6.08,1.78l1.62,0h.12l1.43,0h9.27c6.85,0,10.94-3.74,10.94-10C210.35,268.47,208.34,265.55,203.85,263.53Z"/><path class="cls-2" d="M249,252.32c0-3.43-1.36-5.17-4-5.17s-4,1.74-4,5.17V272.6a2.3,2.3,0,0,1-2.3,2.3h-9.38a3.56,3.56,0,0,1-2.61-.73,7.44,7.44,0,0,1-.34-2.61l0-19.28c0-1.4-.18-5.14-4-5.14a3.88,3.88,0,0,0-2.9,1.1c-.92.95-1.32,2.36-1.26,4.45v19l0,.54c.11,3.15.21,5.87,3.1,8.35a9.41,9.41,0,0,0,6.24,2.44H245a3.79,3.79,0,0,0,2.82-1c1.2-1.21,1.18-3.06,1.17-4.17Z"/><path class="cls-2" d="M282.49,274.9H279V240c0-4.43-1.85-5.24-5.48-5.24h-6.33c-4.27,0-5.17,2.2-5.17,4,0,1.51.67,4,5.17,4h3.72V274.9h-3.72c-4.27,0-5.17,2.2-5.17,4,0,1.51.67,4,5.17,4h15.29c4.5,0,5.17-2.53,5.17-4C287.66,277.1,286.77,274.9,282.49,274.9Z"/><path class="cls-2" d="M129.4,250.14c-2.77-2.78-5.49-3-8.5-3H107.42c-4.27,0-5.17,2.2-5.17,4,0,1.51.67,4,5.17,4h12.67c3.89,0,4.29.4,4.29,4.23v.34H112.51a10.92,10.92,0,0,0-7.7,2.52,8.82,8.82,0,0,0-3.29,7.48v2.63c0,3.18.6,5.79,3.51,8.19,2.39,2,4.55,2.37,7.49,2.37h16.66a3.6,3.6,0,0,0,2.66-1.09,4.78,4.78,0,0,0,1.2-3.49L132.4,258C132.33,254.56,131.88,252.62,129.4,250.14ZM124.71,270v3a2.26,2.26,0,0,1-2.26,2.26h-11a2.26,2.26,0,0,1-2.26-2.26v-3a2.26,2.26,0,0,1,2.26-2.26h11A2.26,2.26,0,0,1,124.71,270Z"/><path class="cls-2" d="M163.3,247.14H146.23c-4,0-4,4-4,5.49v38c0,3.43,1.36,5.17,4,5.17s4-1.74,4-5.17V282a8.21,8.21,0,0,0,1.73.18h11.58a8.12,8.12,0,0,0,8.11-8.11V255.53A8.4,8.4,0,0,0,163.3,247.14ZM163,257.79v13.6a2.89,2.89,0,0,1-2.88,2.88h-6.38a2.88,2.88,0,0,1-2.88-2.88v-13.6a2.89,2.89,0,0,1,2.88-2.88h6.38A2.89,2.89,0,0,1,163,257.79Z"/><path class="cls-2" d="M314.13,270.56c6.27,0,11.6-4.64,12.14-10.57a11.56,11.56,0,0,0-3-8.94,11.69,11.69,0,0,0-8.61-3.8h-8.07A11.57,11.57,0,0,0,295,258a2.9,2.9,0,0,0,0,.4l0,11.53a12.59,12.59,0,0,0,.09,1.5,12.89,12.89,0,0,0,12.82,11.41h13.24a4.22,4.22,0,1,0,0-8.45H307.85a4.47,4.47,0,0,1-4.46-4.34,11.46,11.46,0,0,0,3.21.46Zm-10.76-9.43a4.09,4.09,0,0,1-.1-4.15,3.87,3.87,0,0,1,3.33-1.92h8.48a3,3,0,0,1,2.55,1.2,4.22,4.22,0,0,1,.44,4.44,3.84,3.84,0,0,1-3.4,2.06h-8.43A3.27,3.27,0,0,1,303.37,261.12Z"/></svg>